<?xml version="1.0" encoding="UTF-8" standalone="no"?><svg xmlns="http://www.w3.org/2000/svg" xmlns:xlink= "http://www.w3.org/1999/xlink" width="600" height="390" aria-label="A chart." style="overflow: hidden;"><defs id="_ABSTRACT_RENDERER_ID_7"></defs><rect x="0" y="0" width="600" height="390" stroke="none" stroke-width="0" fill="#ffffff"></rect><g><text text-anchor="start" x="115" y="31.55" font-family="Arial" font-size="13" font-weight="bold" stroke="none" stroke-width="0" fill="#000000">Food Groups</text><rect x="115" y="20.5" width="371" height="13" stroke="none" stroke-width="0" fill-opacity="0" fill="#ffffff"></rect></g><g><rect x="115" y="42" width="190" height="13" stroke="none" stroke-width="0" fill-opacity="0" fill="#ffffff"></rect><g column-id="Grain"><rect x="115" y="42" width="50" height="13" stroke="none" stroke-width="0" fill-opacity="0" fill="#ffffff"></rect><g><text text-anchor="start" x="133" y="53.05" font-family="Arial" font-size="13" stroke="none" stroke-width="0" fill="#222222">Grain</text></g><circle cx="121.5" cy="48.5" r="6.5" stroke="none" stroke-width="0" fill="#3366cc"></circle></g><g column-id="Meat"><rect x="186" y="42" width="47" height="13" stroke="none" stroke-width="0" fill-opacity="0" fill="#ffffff"></rect><g><text text-anchor="start" x="204" y="53.05" font-family="Arial" font-size="13" stroke="none" stroke-width="0" fill="#222222">Meat</text></g><circle cx="192.5" cy="48.5" r="6.5" stroke="none" stroke-width="0" fill="#dc3912"></circle></g><g column-id="Other"><rect x="254" y="42" width="51" height="13" stroke="none" stroke-width="0" fill-opacity="0" fill="#ffffff"></rect><g><text text-anchor="start" x="272" y="53.05" font-family="Arial" font-size="13" stroke="none" stroke-width="0" fill="#222222">Other</text></g><circle cx="260.5" cy="48.5" r="6.5" stroke="none" stroke-width="0" fill="#ff9900"></circle></g></g><g><path d="M301,196L301,76A120,120,0,0,1,308.5348623435176,315.7632074113926L301,196A0,0,0,0,0,301,196" stroke="#ffffff" stroke-width="1" fill="#3366cc"></path></g><g><path d="M301,196L285.96001197228355,76.94623584226265A120,120,0,0,1,301,76L301,196A0,0,0,0,0,301,196" stroke="#ffffff" stroke-width="1" fill="#ff9900"></path></g><g><path d="M301,196L308.5348623435176,315.7632074113926A120,120,0,0,1,285.96001197228355,76.94623584226265L301,196A0,0,0,0,0,301,196" stroke="#ffffff" stroke-width="1" fill="#dc3912"></path></g><g></g></svg>